<svg width="37" height="37" viewBox="0 0 37 37" fill="none" xmlns="http://www.w3.org/2000/svg">
<g clip-path="url(#clip0)">
<path d="M1.54164 1.71008H35.4583V34.7017H1.54164V1.71008Z" fill="url(#paint0_radial)"/>
<path d="M1.54167 1.71023H35.4584V34.7021H1.54167V1.71023ZM2.28882e-05 36.2438H37.0001V0.168579H2.28882e-05V36.2438ZM24.9442 14.9687C23.7263 14.9687 23.3101 15.5853 23.3101 16.094C23.3101 16.649 23.5876 17.0345 25.2218 17.8824C27.6422 19.0541 28.3976 20.1795 28.3976 21.8291C28.3976 24.2958 26.5168 25.6216 23.973 25.6216C22.6317 25.6216 21.4755 25.3441 20.8126 24.9587C20.7047 24.9125 20.6892 24.8354 20.6892 24.712V22.4458C20.6892 22.2916 20.7663 22.2453 20.8743 22.3224C21.8455 22.9546 22.9555 23.232 23.973 23.232C25.1909 23.232 25.6997 22.7233 25.6997 22.0295C25.6997 21.4745 25.3451 20.9812 23.788 20.1795C21.5988 19.1312 20.6892 18.0674 20.6892 16.2945C20.6892 14.3057 22.2464 12.6561 24.9442 12.6561C26.2701 12.6561 27.1951 12.8566 27.7038 13.0878C27.8271 13.1649 27.858 13.2882 27.858 13.3961V15.5082C27.858 15.6315 27.7809 15.7086 27.6267 15.6623C26.9484 15.2308 25.9463 14.9687 24.9442 14.9687ZM11.6859 16.8032C12.0405 16.8341 12.318 16.8341 12.9346 16.8341C14.7385 16.8341 16.4342 16.202 16.4342 13.7508C16.4342 11.7929 15.2163 10.8061 13.1659 10.8061C12.5493 10.8061 11.9634 10.837 11.6859 10.8524V16.8032ZM8.94175 8.61694C8.94175 8.50904 9.15761 8.4319 9.28087 8.4319C10.2676 8.38566 11.7322 8.35483 13.2584 8.35483C17.5288 8.35483 19.1938 10.6982 19.1938 13.689C19.1938 17.6049 16.3571 19.2853 12.873 19.2853C12.2872 19.2853 12.0868 19.2545 11.6704 19.2545V25.1745C11.6704 25.2979 11.6242 25.3595 11.4855 25.3595H9.12672C9.0034 25.3595 8.94168 25.3133 8.94168 25.1745V8.61694H8.94175Z" fill="#31C5F0"/>
</g>
<defs>
<radialGradient id="paint0_radial" cx="0" cy="0" r="1" gradientUnits="userSpaceOnUse" gradientTransform="translate(12.7122 9.10354) scale(25.7767 24.9565)">
<stop stop-color="#34364E" stop-opacity="0.98"/>
<stop offset="1" stop-color="#0C0824"/>
</radialGradient>
<clipPath id="clip0">
<rect width="37" height="36.0824" fill="white" transform="translate(0 0.164795)"/>
</clipPath>
</defs>
</svg>
