<svg width="25" height="36" viewBox="0 0 25 36" fill="none" xmlns="http://www.w3.org/2000/svg">
<g clip-path="url(#clip0)">
<path d="M6.00235 36C9.31433 36 12.0023 33.312 12.0023 30V24H6.00235C2.69036 24 0.00236511 26.688 0.00236511 30C0.00236511 33.312 2.69036 36 6.00235 36Z" fill="#0ACF83"/>
<path d="M0.00236511 18C0.00236511 14.688 2.69036 12 6.00235 12H12.0023V24H6.00235C2.69036 24 0.00236511 21.312 0.00236511 18Z" fill="#A259FF"/>
<path d="M0.00236511 5.99999C0.00236511 2.688 2.69036 0 6.00235 0H12.0023V12H6.00235C2.69036 12 0.00236511 9.31199 0.00236511 5.99999Z" fill="#F24E1E"/>
<path d="M12.0024 0H18.0024C21.3144 0 24.0024 2.688 24.0024 5.99999C24.0024 9.31199 21.3144 12 18.0024 12H12.0024V0Z" fill="#FF7262"/>
<path d="M24.0024 18C24.0024 21.312 21.3144 24 18.0024 24C14.6904 24 12.0024 21.312 12.0024 18C12.0024 14.688 14.6904 12 18.0024 12C21.3144 12 24.0024 14.688 24.0024 18Z" fill="#1ABCFE"/>
</g>
<defs>
<clipPath id="clip0">
<rect width="24.0048" height="36" fill="white"/>
</clipPath>
</defs>
</svg>
