<svg width="53" height="53" viewBox="0 0 53 53" fill="none" xmlns="http://www.w3.org/2000/svg">
<circle cx="26.5" cy="26.5" r="26.5" fill="#2C3046"/>
<path d="M27.6666 42H21V22H27.6666V25.3333C29.0877 23.5254 31.2427 22.4476 33.5416 22.395C37.6759 22.418 41.0119 25.7823 41 29.9167V42H34.3333V30.75C34.0667 28.8877 32.4696 27.506 30.5883 27.51C29.7654 27.536 28.9887 27.8963 28.4374 28.5077C27.886 29.1191 27.6077 29.9288 27.6666 30.75V42ZM17.6667 42H11V22H17.6667V42ZM14.3333 18.6667C12.4924 18.6667 11 17.1743 11 15.3333C11 13.4924 12.4924 12 14.3333 12C16.1743 12 17.6667 13.4924 17.6667 15.3333C17.6667 16.2174 17.3155 17.0652 16.6903 17.6904C16.0652 18.3155 15.2174 18.6667 14.3333 18.6667Z" fill="white"/>
</svg>
