<svg width="37" height="37" viewBox="0 0 37 37" fill="none" xmlns="http://www.w3.org/2000/svg">
<g clip-path="url(#clip0)">
<path d="M1.05741 12.9884C1.05741 12.9884 0.18154 12.357 1.23258 11.514L3.68135 9.32435C3.68135 9.32435 4.38205 8.58716 5.12288 9.22946L27.7202 26.3381V34.542C27.7202 34.542 27.7093 35.8303 26.0561 35.688L1.05741 12.9884Z" fill="#2489CA"/>
<path d="M6.88195 18.2766L1.05742 23.5719C1.05742 23.5719 0.458906 24.0172 1.05742 24.8127L3.76167 27.2725C3.76167 27.2725 4.40397 27.9622 5.35283 27.1776L11.5277 22.4954L6.88195 18.2766Z" fill="#1070B3"/>
<path d="M17.1077 18.3203L27.7897 10.1638L27.7204 2.00355C27.7204 2.00355 27.2642 0.222605 25.7423 1.14957L11.5277 14.0869L17.1077 18.3203Z" fill="#0877B9"/>
<path d="M26.0562 35.699C26.6766 36.334 27.4284 36.126 27.4284 36.126L35.7527 32.024C36.8184 31.2978 36.6688 30.3964 36.6688 30.3964V5.90119C36.6688 4.82459 35.5666 4.45235 35.5666 4.45235L28.3517 0.974414C26.7751 7.86781e-06 25.7423 1.14959 25.7423 1.14959C25.7423 1.14959 27.0707 0.193429 27.7203 2.00356V34.3925C27.7203 34.6151 27.6729 34.8341 27.578 35.0312C27.3882 35.4144 26.9759 35.772 25.9869 35.6224L26.0562 35.699Z" fill="#3C99D4"/>
</g>
<defs>
<clipPath id="clip0">
<rect width="37" height="36.334" fill="white"/>
</clipPath>
</defs>
</svg>
