<svg width="37" height="53" viewBox="0 0 37 53" fill="none" xmlns="http://www.w3.org/2000/svg">
<g clip-path="url(#clip0)">
<path d="M36.9327 10.2271L33.5739 47.8541L18.4759 52.0397L3.41961 47.8599L0.0643005 10.2271H36.9327Z" fill="#E44D26"/>
<path d="M18.4985 48.8402L30.6984 45.458L33.5685 13.304H18.4985V48.8402Z" fill="#F16529"/>
<path d="M11.9691 22.5352H18.4984V17.9197H6.9249L7.03531 19.1579L8.16979 31.8771H18.4984V27.2615H12.3909L11.9691 22.5352ZM13.0093 34.1849H8.37601L9.02259 41.4319L18.4772 44.0564L18.4984 44.0506V39.2486L18.4782 39.2539L13.3379 37.8659L13.0093 34.1849Z" fill="#EBEBEB"/>
<path d="M3.49445 0H5.83999V2.31737H7.98567V0H10.3314V7.01757H7.98582V4.66768H5.84014V7.01757H3.49459V0H3.49445ZM13.4157 2.32719H11.3511V0H17.8276V2.32719H15.7617V7.01757H13.4161V2.32719H13.416H13.4157ZM18.8554 0H21.3011L22.8055 2.46579L24.3085 0H26.7553V7.01757H24.4193V3.53928L22.8055 6.0344H22.7651L21.1504 3.53928V7.01757H18.8554V0ZM27.9225 0H30.2688V4.69803H33.5673V7.01757H27.9224V0H27.9225Z" fill="black"/>
<path d="M18.4826 31.8771H24.166L23.6302 37.8631L18.4824 39.2525V44.0543L27.9445 41.432L28.0138 40.6521L29.0986 28.5009L29.2112 27.2616H18.4826V31.8771ZM18.4826 22.5239V22.5352H29.6312L29.7236 21.4978L29.9341 19.1579L30.0443 17.9197H18.4826V22.5241V22.5239Z" fill="white"/>
</g>
<defs>
<clipPath id="clip0">
<rect width="37" height="52.1715" fill="white"/>
</clipPath>
</defs>
</svg>
