<svg width="37" height="37" viewBox="0 0 37 37" fill="none" xmlns="http://www.w3.org/2000/svg">
<g clip-path="url(#clip0)">
<path d="M1.54158 1.62769H35.4583V34.6195H1.54158V1.62769Z" fill="url(#paint0_radial)"/>
<path d="M1.54167 1.62771H35.4584V34.6194H1.54167V1.62771ZM2.28882e-05 36.1611H37.0001V0.0860596H2.28882e-05V36.1611ZM24.235 12.9436C24.235 12.8203 24.2813 12.7585 24.4201 12.7585H26.8405C26.9637 12.7585 27.0255 12.8048 27.0255 12.9436V25.1074C27.0255 25.2306 26.9946 25.2923 26.8405 25.2923H24.4509C24.2968 25.2923 24.2505 25.2153 24.2505 25.092V12.9436H24.235ZM24.0655 9.44396C24.0655 8.4573 24.7592 7.87149 25.638 7.87149C26.5784 7.87149 27.2105 8.50355 27.2105 9.44396C27.2105 10.4614 26.5476 11.0164 25.6072 11.0164C24.713 11.0165 24.0655 10.4614 24.0655 9.44396ZM17.128 18.0157C16.6964 16.3044 15.6789 12.5736 15.2934 10.7698H15.2625C14.9388 12.5736 14.1217 15.626 13.4743 18.0157H17.128ZM12.8421 20.5132L11.6242 25.1382C11.5934 25.2615 11.5471 25.2923 11.393 25.2923H9.12672C8.97258 25.2923 8.94168 25.246 8.97258 25.0611L13.3509 9.73684C13.428 9.45938 13.4742 9.21268 13.505 8.4573C13.505 8.3494 13.5513 8.30316 13.6284 8.30316H16.8659C16.9738 8.30316 17.02 8.33399 17.0509 8.4573L21.9534 25.0919C21.9842 25.2151 21.9534 25.2923 21.83 25.2923H19.2708C19.1475 25.2923 19.0704 25.2615 19.0396 25.1536L17.7754 20.5132H12.8421Z" fill="#FF7F18"/>
</g>
<defs>
<radialGradient id="paint0_radial" cx="0" cy="0" r="1" gradientUnits="userSpaceOnUse" gradientTransform="translate(12.7121 9.02118) scale(25.7767 24.9566)">
<stop stop-color="#423325" stop-opacity="0.98"/>
<stop offset="1" stop-color="#1C0A00"/>
</radialGradient>
<clipPath id="clip0">
<rect width="37" height="36.0824" fill="white" transform="translate(0 0.0823975)"/>
</clipPath>
</defs>
</svg>
