<svg width="37" height="20" viewBox="0 0 37 20" fill="none" xmlns="http://www.w3.org/2000/svg">
<g clip-path="url(#clip0)">
<path d="M18.5 19.6579C28.7173 19.6579 37 15.3464 37 10.0278C37 4.70926 28.7173 0.397705 18.5 0.397705C8.28273 0.397705 0 4.70926 0 10.0278C0 15.3464 8.28273 19.6579 18.5 19.6579Z" fill="#8993BE"/>
<path fill-rule="evenodd" clip-rule="evenodd" d="M5.19519 15.7298L7.22268 5.46611H11.9108C13.9382 5.59286 14.9519 6.60645 14.9519 8.38056C14.9519 11.4216 12.5445 13.1956 10.3902 13.0688H8.10966L7.60279 15.7298H5.19519ZM8.61639 11.1683L9.25002 7.36683H10.8972C11.7842 7.36683 12.4177 7.74694 12.4177 8.50717C12.2911 10.6614 11.2774 11.0415 10.137 11.1683H8.61653H8.61639ZM14.4809 13.0688L16.5082 2.8053H18.9158L18.409 5.46611H20.6897C22.7171 5.59286 23.4774 6.60645 23.224 7.8737L22.337 13.0688H19.8028L20.6898 8.38056C20.8164 7.74694 20.8164 7.36683 19.9296 7.36683H18.0288L16.8885 13.0688H14.4809ZM22.1747 15.7298L24.2021 5.46611H28.8904C30.9179 5.59286 31.9316 6.60645 31.9316 8.38056C31.9316 11.4216 29.524 13.1956 27.3699 13.0688H25.0891L24.5822 15.7298H22.1747ZM25.5958 11.1683L26.2294 7.36683H27.8768C28.7638 7.36683 29.3972 7.74694 29.3972 8.50717C29.2706 10.6614 28.2569 11.0415 27.1165 11.1683H25.5959H25.5958Z" fill="#232531"/>
</g>
<defs>
<clipPath id="clip0">
<rect width="37" height="19.3732" fill="white" transform="translate(0 0.397705)"/>
</clipPath>
</defs>
</svg>
