<svg width="37" height="53" viewBox="0 0 37 53" fill="none" xmlns="http://www.w3.org/2000/svg">
<g clip-path="url(#clip0)">
<path d="M28.9941 2.10402H25.9251L29.1174 5.57001V7.21839H22.5405V5.28796H25.7329L22.5405 1.82198V0.171509H28.9962L28.9941 2.10402ZM21.2348 2.10402H18.1615L21.358 5.57001V7.21839H14.7791V5.28796H17.9714L14.7791 1.82198V0.171509H21.2348V2.10402ZM13.5506 2.18341H10.2392V5.20858H13.5506V7.22048H7.8826V0.171509H13.5506V2.18341Z" fill="#131313"/>
<path d="M3.36781 48.2046L0 10.4379H37L33.628 48.1983L18.477 52.3977L3.36781 48.2046Z" fill="#1572B6"/>
<path d="M18.5 49.1888L30.7428 45.7938L33.6217 13.5259H18.5V49.1888Z" fill="#33A9DC"/>
<path d="M18.5 27.2079H24.6298L25.0518 22.4655H18.5V17.8358H30.116L30.0053 19.0789L28.8667 31.8438H18.5V27.2079Z" fill="white"/>
<path d="M18.5252 39.238H18.5043L13.346 37.8444L13.0159 34.1506H8.36945L9.01919 41.4233L18.5084 44.0641H18.5356V39.238H18.5252Z" fill="#EBEBEB"/>
<path d="M24.237 31.6414L23.6792 37.8401L18.5125 39.2336V44.0597L28.008 41.4273L28.077 40.6438L28.8834 31.6393H24.237V31.6414Z" fill="white"/>
<path d="M18.5167 17.8358V22.4675H7.33102L7.23492 21.4271L7.02391 19.0789L6.91318 17.8358H18.5167ZM18.5 27.2079V31.8396H13.4002L13.3104 30.7992L13.0993 28.451L12.9886 27.2079H18.4979H18.5Z" fill="#EBEBEB"/>
</g>
<defs>
<clipPath id="clip0">
<rect width="37" height="52.2262" fill="white" transform="translate(0 0.171509)"/>
</clipPath>
</defs>
</svg>
