<svg width="37" height="28" viewBox="0 0 37 28" fill="none" xmlns="http://www.w3.org/2000/svg">
<g clip-path="url(#clip0)">
<path d="M31.8402 15.9417C30.5466 15.949 29.4265 16.2597 28.4871 16.7222C28.1402 16.0357 27.7933 15.4359 27.7356 14.9879C27.6705 14.4676 27.591 14.1495 27.6705 13.5281C27.75 12.9066 28.1113 12.0249 28.1113 11.9527C28.104 11.8876 28.0317 11.5696 27.2875 11.5624C26.5432 11.5552 25.9 11.707 25.8277 11.9021C25.7554 12.0972 25.6109 12.5452 25.5169 13.0077C25.3869 13.687 24.0283 16.0935 23.255 17.3581C23.0021 16.8667 22.7853 16.4331 22.7419 16.0862C22.6769 15.5659 22.5973 15.2479 22.6769 14.6265C22.7564 14.0049 23.1177 13.1234 23.1177 13.0511C23.1105 12.9861 23.0382 12.6681 22.294 12.6609C21.5496 12.6536 20.9065 12.8054 20.8342 13.0005C20.7619 13.1956 20.6825 13.6581 20.5235 14.1062C20.3716 14.5542 18.565 18.5722 18.0953 19.62C17.8568 20.1548 17.6473 20.5812 17.4955 20.8702C17.3437 21.1593 17.4882 20.8919 17.4738 20.9208C17.3437 21.1665 17.2715 21.3038 17.2715 21.3038V21.3111C17.1703 21.4918 17.0619 21.6651 17.0112 21.6651C16.9751 21.6651 16.9028 21.181 17.0257 20.5162C17.2931 19.1214 17.9434 16.9463 17.9363 16.8668C17.9363 16.8306 18.0591 16.4476 17.5171 16.2525C16.9895 16.0574 16.8017 16.3826 16.7583 16.3826C16.7149 16.3826 16.6788 16.4982 16.6788 16.4982C16.6788 16.4982 17.2642 14.0485 15.5587 14.0485C14.4892 14.0485 13.0149 15.212 12.2851 16.2743C11.8226 16.5272 10.8398 17.0619 9.79913 17.6329C9.40167 17.8497 8.98975 18.0809 8.59952 18.2905L8.5201 18.2036C6.45331 15.9995 2.63046 14.4386 2.78945 11.4757C2.84726 10.3989 3.22304 7.55891 10.1317 4.11908C15.7901 1.30072 20.3211 2.07397 21.1088 3.79388C22.2289 6.25091 18.6879 10.8181 12.8055 11.4757C10.5653 11.7286 9.38729 10.8614 9.09107 10.5363C8.78033 10.1966 8.73697 10.1822 8.62134 10.2472C8.43345 10.3484 8.54908 10.6519 8.62134 10.8325C8.79478 11.2878 9.51744 12.0972 10.7459 12.5019C11.8226 12.856 14.4532 13.0511 17.6329 11.8226C21.1955 10.4423 23.9778 6.61224 23.1612 3.41088C22.3301 0.151704 16.9247 -0.917825 11.8155 0.896038C8.77303 1.98002 5.47772 3.67103 3.10741 5.88958C0.289059 8.52005 -0.158987 10.8181 0.028903 11.772C0.686591 15.1757 5.37655 17.3942 7.25545 19.0347C7.16151 19.0852 7.07479 19.1358 6.9953 19.1792C6.05585 19.6416 2.4787 21.5134 1.58261 23.4934C0.570894 25.7336 1.7416 27.3452 2.52206 27.562C4.93573 28.2341 7.40721 27.0272 8.74412 25.0399C10.0737 23.0526 9.91482 20.4728 9.30057 19.2948L9.27882 19.2515L10.0159 18.8179C10.4929 18.536 10.9627 18.2759 11.3745 18.0518C11.1433 18.6805 10.9771 19.4248 10.8904 20.5088C10.7892 21.7808 11.3095 23.4283 11.9961 24.0787C12.2996 24.3605 12.6609 24.3678 12.8849 24.3678C13.6799 24.3678 14.0412 23.7101 14.4386 22.9225C14.93 21.9614 15.3636 20.8485 15.3636 20.8485C15.3636 20.8485 14.8217 23.8619 16.3031 23.8619C16.8451 23.8619 17.3871 23.161 17.6328 22.7996V22.8069C17.6328 22.8069 17.6472 22.7852 17.6761 22.7346C17.7065 22.6898 17.7354 22.644 17.7629 22.5974V22.5829C17.9797 22.2071 18.4638 21.3472 19.1865 19.9235C20.1186 18.088 21.0148 15.79 21.0148 15.79C21.0148 15.79 21.1015 16.3536 21.3689 17.2786C21.5278 17.8279 21.8747 18.4276 22.1421 19.013C21.9253 19.3165 21.7952 19.49 21.7952 19.49L21.8024 19.4972C21.6291 19.7285 21.4339 19.9743 21.2316 20.2199C20.4945 21.1015 19.6129 22.1061 19.4972 22.3952C19.3599 22.7347 19.3888 22.9877 19.6562 23.1901C19.8513 23.3346 20.1982 23.3634 20.5668 23.3346C21.2316 23.2912 21.6941 23.125 21.9254 23.0238C22.2867 22.8937 22.6986 22.6986 23.0961 22.4095C23.8187 21.8748 24.2595 21.1161 24.2162 20.1043C24.1945 19.5479 24.0138 18.9987 23.7898 18.4784C23.8548 18.3844 23.92 18.2904 23.9849 18.1893C25.1267 16.5199 26.0084 14.6844 26.0084 14.6844C26.0084 14.6844 26.0951 15.2481 26.3625 16.1731C26.4997 16.6428 26.7744 17.156 27.0201 17.6618C25.9505 18.5363 25.2785 19.548 25.0472 20.2128C24.6209 21.4413 24.9533 21.9978 25.582 22.1278C25.8637 22.1857 26.2685 22.0556 26.572 21.9255C26.9477 21.8027 27.403 21.593 27.8222 21.2823C28.5449 20.7476 29.2386 20.0032 29.2025 18.9988C29.1808 18.5363 29.058 18.081 28.8917 17.6474C29.8023 17.2716 30.9801 17.0548 32.4761 17.2355C35.6919 17.6113 36.3279 19.6202 36.2051 20.4585C36.0822 21.2969 35.4102 21.7593 35.1861 21.9038C34.962 22.0411 34.8898 22.0918 34.9115 22.1929C34.9404 22.3447 35.0415 22.3374 35.2367 22.3086C35.504 22.2652 36.9277 21.6221 36.9855 20.0757C37.0722 18.0881 35.1861 15.9201 31.8402 15.9417ZM7.03866 24.3028C5.97635 25.4663 4.48046 25.9071 3.84452 25.5313C3.158 25.1339 3.42531 23.4212 4.73339 22.1854C5.52831 21.4339 6.5617 20.7401 7.241 20.3138C7.39276 20.2198 7.62401 20.0826 7.89862 19.9163C7.94198 19.8875 7.97088 19.873 7.97088 19.873C8.02147 19.844 8.07928 19.8079 8.13709 19.7718C8.62127 21.5351 8.15877 23.0815 7.03866 24.3028ZM14.8072 19.0202C14.4386 19.9235 13.6582 22.2433 13.1885 22.1132C12.7837 22.0048 12.5381 20.2487 13.1089 18.5144C13.3979 17.6399 14.0122 16.5993 14.3735 16.1946C14.959 15.5442 15.5948 15.3274 15.7539 15.5948C15.9418 15.9417 15.0384 18.4565 14.8072 19.0202ZM21.2171 22.0843C21.0582 22.1638 20.9136 22.2216 20.8486 22.1783C20.798 22.1494 20.9136 22.041 20.9136 22.041C20.9136 22.041 21.7157 21.181 22.0337 20.7836C22.2143 20.5524 22.4311 20.285 22.6624 19.9814V20.0681C22.6625 21.1087 21.6652 21.8024 21.2171 22.0843ZM26.16 20.9569C26.0444 20.8702 26.0589 20.6028 26.4491 19.7646C26.6009 19.4321 26.9477 18.8757 27.5475 18.3481C27.6198 18.5649 27.6632 18.7744 27.6559 18.9696C27.6488 20.2704 26.7238 20.7546 26.16 20.9569Z" fill="#CF649A"/>
</g>
<defs>
<clipPath id="clip0">
<rect width="37" height="27.75" fill="white"/>
</clipPath>
</defs>
</svg>
