<svg width="53" height="53" viewBox="0 0 53 53" fill="none" xmlns="http://www.w3.org/2000/svg">
<circle cx="26.4815" cy="27.5" r="25.5" fill="white"/>
<path d="M26.4987 7.2167e-07C13.503 -0.00171145 2.42487 9.66529 0.344173 22.8228C-1.73652 35.9804 5.79465 48.7434 18.1245 52.955C19.4525 53.2002 19.9279 52.3638 19.9279 51.6447C19.9279 50.999 19.9067 49.2883 19.8987 47.0136C12.5285 48.6481 10.9721 43.3687 10.9721 43.3687C10.4869 41.7259 9.44385 40.3158 8.03202 39.3941C5.64168 37.7078 8.21528 37.746 8.21528 37.746C9.91687 37.9853 11.4145 39.0194 12.2709 40.5464C12.9958 41.8983 14.217 42.8973 15.6633 43.3213C17.1096 43.7454 18.6611 43.5594 19.9731 42.8048C20.0963 41.4263 20.6942 40.138 21.6596 39.1707C15.7794 38.487 9.59636 36.1551 9.59636 25.7406C9.56372 23.0469 10.5389 20.4429 12.3213 18.4644C11.5149 16.1197 11.6098 13.5479 12.5869 11.2726C12.5869 11.2726 14.8099 10.5398 19.8695 14.054C24.2089 12.8335 28.7885 12.8335 33.1279 14.054C38.1901 10.5371 40.4104 11.2726 40.4104 11.2726C41.392 13.5469 41.4871 16.1204 40.676 18.4644C42.4649 20.4427 43.4393 23.0536 43.3957 25.7515C43.3957 36.1932 37.2074 38.487 31.3059 39.1598C32.5789 40.4948 33.2318 42.3262 33.0986 44.1886C33.0986 47.8227 33.0668 50.7539 33.0668 51.6447C33.0668 52.372 33.5395 53.2165 34.8914 52.9495C47.2161 48.7308 54.7392 35.9671 52.6543 22.813C50.5693 9.65893 39.4916 -0.00304881 26.4987 7.2167e-07Z" fill="#2C3046"/>
</svg>
