<svg width="37" height="37" viewBox="0 0 37 37" fill="none" xmlns="http://www.w3.org/2000/svg">
<g clip-path="url(#clip0)">
<path d="M1.54167 1.54541H35.4582V34.537H1.54167V1.54541Z" fill="#2E001E"/>
<path d="M-3.8147e-05 0.00366211V36.0787H37V0.00366211H-3.8147e-05ZM1.54163 1.54533H35.4583V34.537H1.54163V1.54533Z" fill="#FF2BC2"/>
<path d="M26.8712 15.1582C26.64 15.0503 26.347 15.0041 25.977 15.0041C24.0345 15.0041 22.7395 16.4995 22.7395 18.9815C22.7395 21.8182 24.0654 22.959 25.792 22.959C26.162 22.959 26.5629 22.9128 26.8558 22.7894V15.1582H26.8712ZM19.9645 19.1049C19.9645 15.5128 22.2771 12.707 26.0695 12.707C26.3933 12.707 26.5629 12.707 26.8712 12.7378V8.72952C26.8712 8.63702 26.9483 8.57535 27.0254 8.57535H29.5075C29.6308 8.57535 29.6616 8.6216 29.6616 8.69869V22.7894C29.6616 23.2057 29.6616 23.7298 29.7387 24.3002C29.7387 24.4082 29.7387 24.4236 29.6462 24.4698C28.3512 25.0865 26.9945 25.364 25.6995 25.364C22.3541 25.364 19.9645 23.2982 19.9645 19.1049ZM14.7075 16.6074L19.0241 24.9786C19.1012 25.1019 19.055 25.2252 18.9316 25.2252H16.2491C16.0795 25.2252 16.0025 25.179 15.9254 25.0248C14.9387 22.9898 13.9366 20.8778 12.9037 18.6886H12.8729C11.9479 20.7544 10.9304 23.0053 9.94372 25.0402C9.86663 25.1636 9.78955 25.2098 9.66622 25.2098H7.10705C6.95288 25.2098 6.93747 25.0865 7.01455 24.994L11.2387 16.8695L7.1533 8.79118C7.0608 8.66785 7.1533 8.55994 7.26122 8.55994H9.91288C10.0671 8.55994 10.1441 8.59077 10.1904 8.72952C11.1616 10.7799 12.1483 12.7995 13.0733 14.8653H13.1041C13.9983 12.8303 14.985 10.7799 15.9254 8.76035C16.0025 8.63702 16.0487 8.55994 16.2029 8.55994H18.685C18.8083 8.55994 18.8545 8.65244 18.7775 8.79118L14.7075 16.6074Z" fill="#FF2BC2"/>
</g>
<defs>
<clipPath id="clip0">
<rect width="37" height="36.0824" fill="white"/>
</clipPath>
</defs>
</svg>
