<svg width="37" height="37" viewBox="0 0 37 37" fill="none" xmlns="http://www.w3.org/2000/svg">
<g clip-path="url(#clip0)">
<path d="M36.3022 16.8514L20.1477 0.697761C19.2179 -0.232587 17.709 -0.232587 16.7781 0.697761L13.4235 4.05233L17.6789 8.30776C18.6678 7.97361 19.8018 8.19778 20.5901 8.98605C21.3821 9.77938 21.6047 10.9231 21.2624 11.9151L25.3635 16.0163C26.3557 15.6745 27.5005 15.8957 28.293 16.6894C29.4005 17.7965 29.4005 19.5909 28.293 20.6987C27.1852 21.8067 25.3908 21.8067 24.2824 20.6987C23.4493 19.8648 23.2435 18.6413 23.6653 17.615L19.8407 13.7904L19.8402 23.8551C20.1175 23.9922 20.3707 24.1733 20.5901 24.3913C21.6976 25.4985 21.6976 27.293 20.5901 28.4017C19.4822 29.5091 17.687 29.5091 16.5808 28.4017C15.4732 27.293 15.4732 25.4986 16.5808 24.3915C16.8462 24.1259 17.1616 23.9156 17.5088 23.7728V13.6142C17.1611 13.4723 16.8455 13.2619 16.5808 12.9955C15.7416 12.1575 15.5399 10.9262 15.9698 9.89587L11.775 5.70057L0.698086 16.7767C-0.232695 17.7079 -0.232695 19.217 0.698086 20.1475L16.8529 36.3014C17.783 37.2319 19.2916 37.2319 20.2228 36.3014L36.3021 20.2225C37.2325 19.2917 37.2325 17.7818 36.3021 16.8514" fill="#DE4C36"/>
</g>
<defs>
<clipPath id="clip0">
<rect width="37" height="37" fill="white"/>
</clipPath>
</defs>
</svg>
