<svg width="37" height="37" viewBox="0 0 37 37" fill="none" xmlns="http://www.w3.org/2000/svg">
<g clip-path="url(#clip0)">
<circle cx="18.5" cy="18.5" r="18.5" fill="white"/>
<path d="M2.6296 18.4989C2.6296 24.7807 6.28005 30.2092 11.5738 32.7818L4.0036 12.0404C3.09612 14.0725 2.62791 16.2734 2.6296 18.4989V18.4989ZM29.213 17.698C29.213 15.7368 28.5085 14.3785 27.9043 13.3214C27.0998 12.0141 26.3458 10.9071 26.3458 9.59985C26.3458 8.14097 27.4522 6.78293 29.0108 6.78293C29.0812 6.78293 29.1478 6.79164 29.2164 6.7957C26.3929 4.2089 22.6312 2.6296 18.4996 2.6296C12.9553 2.6296 8.07757 5.47423 5.23991 9.78281C5.61221 9.79398 5.96303 9.80167 6.26119 9.80167C7.92102 9.80167 10.4906 9.60043 10.4906 9.60043C11.3461 9.54994 11.447 10.8064 10.5924 10.9077C10.5924 10.9077 9.7326 11.0088 8.77588 11.0589L14.5554 28.2489L18.0284 17.833L15.5558 11.0584C14.7012 11.0084 13.8916 10.9072 13.8916 10.9072C13.0364 10.857 13.1367 9.5495 13.9919 9.59999C13.9919 9.59999 16.6127 9.80138 18.172 9.80138C19.8318 9.80138 22.4015 9.59999 22.4015 9.59999C23.2576 9.5495 23.3583 10.806 22.5034 10.9072C22.5034 10.9072 21.6418 11.0084 20.6869 11.0584L26.4221 28.1182L28.005 22.8285C28.691 20.6335 29.2132 19.0569 29.2132 17.6982L29.213 17.698ZM18.7781 19.8871L14.0165 33.7233C15.4723 34.1521 16.982 34.3698 18.4996 34.3698C20.3476 34.3698 22.1199 34.0503 23.7697 33.4703C23.7257 33.4009 23.6879 33.3277 23.6567 33.2516L18.7781 19.8871ZM32.4249 10.8851C32.4931 11.3905 32.5318 11.9332 32.5318 12.5169C32.5318 14.1274 32.2311 15.9376 31.3251 18.2012L26.4775 32.2168C31.1955 29.4655 34.3689 24.354 34.3689 18.4993C34.3692 15.7402 33.6644 13.1455 32.4247 10.8851H32.4249ZM18.4996 0C8.29912 0 0 8.29854 0 18.4989C0 28.7006 8.29912 36.9988 18.4996 36.9988C28.6997 36.9988 37 28.7006 37 18.4989C36.9999 8.29854 28.6999 0 18.4998 0H18.4996ZM18.4996 36.1509C8.76703 36.1509 0.848193 28.2322 0.848193 18.4989C0.848193 8.76631 8.7666 0.848193 18.4996 0.848193C28.232 0.848193 36.1501 8.76631 36.1501 18.4989C36.1501 28.2322 28.232 36.1509 18.4996 36.1509V36.1509Z" fill="#464342"/>
</g>
<defs>
<clipPath id="clip0">
<rect width="37" height="36.852" fill="white"/>
</clipPath>
</defs>
</svg>
