<svg width="37" height="37" viewBox="0 0 37 37" fill="none" xmlns="http://www.w3.org/2000/svg">
<path d="M0 32.2292C0 34.8643 2.13603 37 4.77083 37H32.229C34.8643 37 37 34.864 37 32.2292V4.77098C37 2.13574 34.864 0 32.2292 0H4.77098C2.13574 0 0 2.13603 0 4.77083V32.229V32.2292Z" fill="#563D7C"/>
<path d="M15.3432 16.3664V11.1267H19.9553C20.3947 11.1267 20.8182 11.1633 21.2261 11.2366C21.6339 11.3097 21.9948 11.4404 22.3086 11.6287C22.6222 11.817 22.8733 12.0785 23.0616 12.4131C23.2498 12.7478 23.344 13.1766 23.344 13.6994C23.344 14.6407 23.0616 15.3206 22.4968 15.7389C21.9321 16.1573 21.2105 16.3664 20.3318 16.3664H15.3432ZM10.4171 7.29883V29.7012H21.2732C22.2773 29.7012 23.2552 29.5757 24.2069 29.3247C25.1586 29.0736 26.0057 28.6867 26.7484 28.1638C27.4908 27.6409 28.0818 26.9662 28.521 26.1401C28.9604 25.3138 29.18 24.3359 29.18 23.2064C29.18 21.8049 28.84 20.6074 28.1603 19.6139C27.4804 18.6202 26.4502 17.9248 25.0696 17.5273C26.0737 17.0463 26.832 16.4292 27.3445 15.6761C27.8569 14.9231 28.1132 13.982 28.1132 12.8523C28.1132 11.8065 27.9406 10.928 27.5955 10.2168C27.2503 9.50568 26.764 8.93564 26.1364 8.50682C25.509 8.078 24.756 7.76942 23.8774 7.58124C22.9989 7.39292 22.0262 7.29883 20.9594 7.29883H10.4171ZM15.3432 25.8733V19.7236H20.7084C21.7751 19.7236 22.6328 19.9693 23.2813 20.461C23.9297 20.9525 24.254 21.7735 24.254 22.924C24.254 23.5097 24.1546 23.9907 23.9558 24.3672C23.7571 24.7437 23.4905 25.0419 23.1557 25.2615C22.8211 25.4811 22.4341 25.638 21.9948 25.7322C21.5555 25.8261 21.0954 25.8733 20.6143 25.8733H15.3432Z" fill="white"/>
</svg>
