<svg width="33" height="37" viewBox="0 0 33 37" fill="none" xmlns="http://www.w3.org/2000/svg">
<g clip-path="url(#clip0)">
<path d="M30.9992 14.67C30.9992 10.7793 29.4536 7.04792 26.7024 4.29676C23.9512 1.54561 20.2199 2.28305e-05 16.3291 2.28305e-05C12.8335 -0.00614245 9.45063 1.23656 6.79027 3.50414C4.12991 5.77172 2.36705 8.91502 1.81944 12.3675C1.27182 15.8199 1.97547 19.3545 3.80355 22.334C5.63163 25.3135 8.4639 27.542 11.7899 28.6178V35.9683C11.7899 36.2419 11.8986 36.5043 12.092 36.6978C12.2855 36.8913 12.5479 37 12.8215 37H19.7851C20.0588 37 20.3212 36.8913 20.5146 36.6978C20.7081 36.5043 20.8168 36.2419 20.8168 35.9683V28.6282C23.775 27.6792 26.3558 25.816 28.1875 23.3067C30.0192 20.7974 31.0073 17.7715 31.0095 14.6649L30.9992 14.67ZM16.3291 19.6219C15.0144 19.6219 13.7536 19.0996 12.8239 18.17C11.8943 17.2404 11.372 15.9795 11.372 14.6649C11.372 13.3502 11.8943 12.0893 12.8239 11.1597C13.7536 10.2301 15.0144 9.7078 16.3291 9.7078C17.6445 9.7078 18.906 10.2303 19.8361 11.1604C20.7662 12.0906 21.2888 13.3521 21.2888 14.6674C21.2888 15.9828 20.7662 17.2443 19.8361 18.1744C18.906 19.1045 17.6445 19.6271 16.3291 19.6271V19.6219Z" fill="#2684FF"/>
<path d="M16.3291 3.11872e-05V9.71297C17.6444 9.71297 18.9059 10.2355 19.8361 11.1656C20.7662 12.0957 21.2887 13.3572 21.2887 14.6726C21.2887 15.988 20.7662 17.2495 19.8361 18.1796C18.9059 19.1097 17.6444 19.6322 16.3291 19.6322C17.533 19.6322 18.6875 20.1105 19.5388 20.9618C20.3901 21.813 20.8683 22.9676 20.8683 24.1715V28.6282C24.1959 27.552 27.0296 25.3225 28.8584 22.3415C30.6873 19.3605 31.391 15.8242 30.8427 12.3701C30.2944 8.91605 28.5302 5.7715 25.8681 3.50339C23.206 1.23527 19.8212 -0.00717683 16.3239 3.11872e-05H16.3291Z" fill="url(#paint0_linear)"/>
</g>
<defs>
<linearGradient id="paint0_linear" x1="23.6641" y1="25.9717" x2="23.6641" y2="10.3887" gradientUnits="userSpaceOnUse">
<stop offset="0.18" stop-color="#0052CC"/>
<stop offset="1" stop-color="#2684FF"/>
</linearGradient>
<clipPath id="clip0">
<rect width="32.6636" height="37" fill="white"/>
</clipPath>
</defs>
</svg>
