<svg width="37" height="37" viewBox="0 0 37 37" fill="none" xmlns="http://www.w3.org/2000/svg">
<path d="M18.5 35.6157C27.9528 35.6157 35.6157 27.9528 35.6157 18.5C35.6157 9.04725 27.9528 1.38434 18.5 1.38434C9.04725 1.38434 1.38434 9.04725 1.38434 18.5C1.38434 27.9528 9.04725 35.6157 18.5 35.6157ZM18.5 37C8.2823 37 0 28.7177 0 18.5C0 8.2823 8.2823 0 18.5 0C28.7177 0 37 8.2823 37 18.5C37 28.7177 28.7177 37 18.5 37Z" fill="#F4815B"/>
<path fill-rule="evenodd" clip-rule="evenodd" d="M30.8313 9.12746C25.6282 2.39287 15.9526 1.15111 9.21804 6.3543C2.48496 11.5575 1.24321 21.2331 6.44638 27.9662C11.6481 34.7008 21.3236 35.944 28.0582 30.7408C34.7928 25.5391 36.0345 15.8606 30.8313 9.12746Z" fill="#FF6C37"/>
<path fill-rule="evenodd" clip-rule="evenodd" d="M21.6682 13.3474C20.5587 13.8539 18.7525 15.3853 15.8219 18.304L16.6552 19.1372L16.933 19.4165L22.5966 13.7529C22.7733 13.5761 22.9976 13.487 23.2279 13.4469C22.8075 13.132 22.4035 13.0117 21.6682 13.3474ZM24.1666 15.5086L18.2386 20.7176C18.7659 21.2464 19.0555 21.5346 19.2041 21.6846C21.5524 19.4566 23.7878 17.184 24.1666 15.5086ZM14.041 20.1116C14.0499 20.1265 14.0588 20.125 14.0677 20.1235L16.4695 19.6051L15.4966 18.6337L14.044 20.0849C14.0395 20.0879 14.0321 20.0938 14.041 20.1116ZM24.9301 12.0626L26.9397 10.0529C26.5342 9.73653 26.0426 9.58057 25.5509 9.58057C24.9702 9.58057 24.3894 9.8004 23.9527 10.2386C23.5249 10.6663 23.2902 11.2337 23.2902 11.8383C23.2902 12.4428 23.5249 13.0117 23.9527 13.4395C24.6092 14.0975 25.6029 14.2861 26.4555 13.9133L24.9316 12.3908C24.8885 12.3478 24.8632 12.2883 24.8632 12.2274C24.8617 12.1651 24.887 12.1071 24.9301 12.0626Z" fill="white"/>
<path fill-rule="evenodd" clip-rule="evenodd" d="M27.0853 12.5869C27.0452 12.5869 27.0051 12.572 26.9709 12.5453C26.8967 12.4829 26.8848 12.37 26.9487 12.2943C27.0838 12.1309 27.1091 11.9036 27.0125 11.715C26.9694 11.6274 27.0051 11.5204 27.0927 11.4758C27.1804 11.4328 27.2873 11.4684 27.3319 11.5561C27.4893 11.8709 27.4462 12.2512 27.2205 12.5215C27.1878 12.5631 27.1373 12.5869 27.0853 12.5869ZM27.2754 10.3693L25.4202 12.2274L26.8699 13.6771C26.9709 13.6058 27.0645 13.5256 27.1536 13.4395C27.5814 13.0117 27.8161 12.4428 27.8161 11.8383C27.8161 11.2946 27.626 10.7807 27.2754 10.3693ZM22.9234 14.0782L17.2761 19.727L17.9252 20.376L23.9052 15.1239C24.0552 14.9917 24.1413 14.8075 24.1473 14.6084C24.1532 14.4079 24.079 14.2193 23.9379 14.0767C23.6586 13.7989 23.2041 13.7989 22.9234 14.0782ZM12.3863 26.1258C12.3863 26.1258 12.3878 26.1258 12.3893 26.1243C15.0822 24.7742 17.2582 23.3854 18.8595 21.9951L17.946 21.0831L15.5456 21.4559L10.7925 26.209L12.3135 27.73C12.3507 27.7657 12.3878 27.7567 12.413 27.7449C12.4383 27.73 12.465 27.7033 12.4546 27.6528L12.1947 26.5402C12.1561 26.3739 12.2348 26.2046 12.3863 26.1258ZM11.8352 27.9053L10.4658 26.5358L9.30421 27.6973C9.29976 27.7003 9.2953 27.7062 9.29976 27.7181C9.30421 27.7315 9.31313 27.733 9.31758 27.733L11.8352 27.9053ZM16.1606 20.8424H16.165C16.1695 20.8424 16.1784 20.8439 16.1829 20.8439L17.533 20.6687L16.9359 20.0686L16.1606 20.8424Z" fill="white"/>
<path fill-rule="evenodd" clip-rule="evenodd" d="M27.3332 11.556C27.2902 11.4684 27.1818 11.4313 27.0927 11.4758C27.0051 11.5189 26.9694 11.6258 27.0125 11.715C27.1075 11.9036 27.0823 12.1308 26.9471 12.2942C26.8833 12.37 26.8952 12.4829 26.9709 12.5452C27.0036 12.572 27.0437 12.5868 27.0852 12.5868C27.1372 12.5868 27.1862 12.5631 27.2219 12.5215C27.4476 12.2512 27.4907 11.8709 27.3332 11.556Z" fill="#FF6C37"/>
</svg>
