<svg width="37" height="38" viewBox="0 0 37 38" fill="none" xmlns="http://www.w3.org/2000/svg">
<g clip-path="url(#clip0)">
<path d="M0 0.397705H37V37.3977H0V0.397705Z" fill="#F0DB4F"/>
<path d="M33.9718 28.5733C33.701 26.8851 32.6001 25.4677 29.3398 24.1452C28.2073 23.6247 26.9446 23.2519 26.5683 22.3937C26.4346 21.8943 26.417 21.6129 26.5015 21.3104C26.7441 20.3292 27.9153 20.0232 28.8438 20.3045C29.4418 20.505 30.008 20.9658 30.3492 21.7008C31.9459 20.6668 31.9424 20.6738 33.0573 19.9634C32.6494 19.3303 32.4313 19.0384 32.164 18.7676C31.2038 17.6949 29.8955 17.1427 27.8028 17.1849C27.4405 17.2306 27.0748 17.2798 26.7125 17.3256C25.6679 17.5893 24.6726 18.138 24.0887 18.8731C22.3372 20.8603 22.8366 24.3387 24.968 25.7702C27.0677 27.3459 30.1522 27.7046 30.5461 29.1783C30.9295 30.9826 29.2202 31.5664 27.5214 31.3589C26.2693 31.0987 25.573 30.4621 24.8203 29.3049C23.4346 30.1068 23.4346 30.1068 22.0102 30.9263C22.3478 31.6649 22.703 31.999 23.2693 32.6392C25.9493 35.3579 32.6564 35.2243 33.8593 31.1092C33.9085 30.9685 34.2321 30.0259 33.9718 28.5733ZM20.1144 17.4029H16.6536C16.6536 20.3925 16.6395 23.3609 16.6395 26.3505C16.6395 28.2533 16.738 29.9978 16.4285 30.5324C15.9221 31.5839 14.6102 31.4538 14.0123 31.2498C13.4038 30.9509 13.0943 30.5253 12.7356 29.9239C12.6371 29.7516 12.5632 29.6179 12.5386 29.6074C11.5995 30.1806 10.664 30.7574 9.72488 31.3307C10.1927 32.2909 10.882 33.1245 11.7648 33.6661C13.0837 34.4574 14.8563 34.7001 16.7099 34.2746C17.9162 33.9228 18.9573 33.1948 19.5024 32.0869C20.2903 30.6344 20.1214 28.8758 20.1144 26.9308C20.132 23.7584 20.1144 20.5859 20.1144 17.4029Z" fill="#323330"/>
</g>
<defs>
<clipPath id="clip0">
<rect width="37" height="37" fill="white" transform="translate(0 0.397705)"/>
</clipPath>
</defs>
</svg>
