<svg width="234" height="382" viewBox="0 0 234 382" fill="none" xmlns="http://www.w3.org/2000/svg">
<path d="M190.82 381.14C85.8806 381.14 0.5 295.759 0.5 190.82C0.5 86.0473 85.6095 0.771336 190.32 0.500646V1.87977C86.3691 2.15045 1.90137 86.8068 1.90137 190.798C1.90137 294.978 86.6624 379.716 190.82 379.716C222.131 379.716 253.132 371.909 280.492 357.126L281.15 358.337C253.582 373.284 222.344 381.14 190.82 381.14Z" stroke="#33364F"/>
<path d="M102.349 333.797L100.361 337.015C49.4997 305.491 19.1022 251.084 18.9336 191.32H22.7141C22.8827 249.764 52.6152 302.959 102.349 333.797Z" stroke="#33364F"/>
<path d="M190.82 362.729C172.143 362.729 153.794 359.746 136.246 353.887L137.458 350.321C154.621 356.059 172.568 358.971 190.842 358.971C277.269 358.971 349.082 294.346 358.028 208.556L361.791 208.943C352.609 296.624 279.203 362.729 190.82 362.729Z" stroke="#33364F"/>
<path d="M356.706 163.479C350.351 124.664 330.366 89.1068 300.364 63.3242C269.922 37.1423 231.007 22.7358 190.82 22.7358C158.372 22.7358 126.882 31.9908 99.7413 49.5199L100.013 49.94L99.7413 49.52C68.2591 69.8568 44.2039 100.449 31.9535 135.709L28.3851 134.479C40.8959 98.4303 65.4979 67.1518 97.6822 46.3577C125.439 28.4443 157.63 18.9775 190.798 18.9775C231.902 18.9775 271.675 33.7209 302.803 60.4804L303.128 60.1013L302.803 60.4804C333.47 86.8426 353.913 123.209 360.41 162.899L356.706 163.479Z" stroke="#33364F"/>
<path d="M190.82 314.836C122.435 314.836 66.8046 259.205 66.8046 190.82C66.8046 163.304 75.6213 137.279 92.2773 115.523L95.2653 117.825C79.119 138.934 70.5851 164.151 70.5851 190.82C70.5851 257.112 124.528 311.055 190.82 311.055C202.417 311.055 213.886 309.407 224.882 306.152L225.973 309.775C214.605 313.156 202.767 314.836 190.82 314.836Z" stroke="#33364F"/>
<path d="M265.228 96.3774C243.848 79.4975 218.115 70.5854 190.82 70.5854C166.897 70.5854 143.808 77.5874 124.006 90.8479L121.897 87.7191C142.311 74.0372 166.139 66.8271 190.82 66.8271C219 66.8271 245.535 76.018 267.582 93.444L265.228 96.3774Z" stroke="#33364F"/>
<path d="M190.82 293.445C174.303 293.445 157.895 289.433 143.357 281.84L144.003 280.613C158.351 288.104 174.52 292.066 190.798 292.066C236.058 292.066 276.061 261.747 288.267 218.253L289.595 218.626C277.265 262.711 236.701 293.445 190.82 293.445Z" stroke="#33364F"/>
<path d="M118.935 262.078L117.917 263.07C98.7532 243.726 88.1945 218.095 88.1945 190.843C88.1945 134.264 134.219 88.2173 190.82 88.2173C247.232 88.2173 293.174 133.993 293.444 190.343H292.065C291.795 134.753 246.494 89.6186 190.842 89.6186C135.023 89.6186 89.6181 135.024 89.6181 190.843C89.6181 217.711 100.012 242.993 118.935 262.078Z" stroke="#33364F"/>
<path d="M190.82 254.468C155.72 254.468 127.172 225.92 127.172 190.821C127.172 155.888 155.45 127.444 190.32 127.175V130.955C157.543 131.225 130.953 157.981 130.953 190.821C130.953 223.827 157.814 250.688 190.82 250.688C223.659 250.688 250.415 224.097 250.685 191.321H254.465C254.174 226.191 225.73 254.468 190.82 254.468Z" stroke="#33364F"/>
<path d="M190.82 222.205C173.675 222.205 159.707 208.402 159.439 191.32H160.818C161.086 207.62 174.435 220.803 190.798 220.803C207.328 220.803 220.781 207.35 220.781 190.82C220.781 174.29 207.328 160.836 190.798 160.836C181.784 160.836 173.38 164.805 167.642 171.754L166.556 170.887C172.549 163.598 181.355 159.435 190.798 159.435C208.109 159.435 222.183 173.508 222.183 190.82C222.183 208.132 208.109 222.205 190.82 222.205Z" stroke="#33364F"/>
</svg>
