<svg width="289" height="56" viewBox="0 0 289 56" fill="none" xmlns="http://www.w3.org/2000/svg">
<path d="M3.10141e-05 46.4498L3.05176e-05 55.5934L37.4493 55.5934L37.4493 46.4498L3.10141e-05 46.4498Z" fill="#2C3046"/>
<path d="M3.10141e-05 23.2249L3.05176e-05 32.3685L37.4493 32.3685L37.4493 23.2249L3.10141e-05 23.2249Z" fill="#2C3046"/>
<path d="M4.96524e-07 -9.53674e-06L0 9.14355L37.4493 9.14356L37.4493 -8.21907e-06L4.96524e-07 -9.53674e-06Z" fill="#2C3046"/>
<path d="M53.3269 46.4498L53.3269 55.5934L90.7761 55.5934L90.7761 46.4498L53.3269 46.4498Z" fill="#2C3046"/>
<path d="M53.3269 23.2249L53.3269 32.3685L90.7761 32.3685L90.7761 23.2249L53.3269 23.2249Z" fill="#2C3046"/>
<path d="M106.654 23.2249L106.654 32.3685L144.103 32.3685L144.103 23.2249L106.654 23.2249Z" fill="#2C3046"/>
<path d="M106.654 -9.53674e-06L106.654 9.14355L144.103 9.14356L144.103 -8.21907e-06L106.654 -9.53674e-06Z" fill="#2C3046"/>
<path d="M159.998 46.4498L159.998 55.5934L197.448 55.5934L197.448 46.4498L159.998 46.4498Z" fill="#2C3046"/>
<path d="M159.998 -9.53674e-06L159.998 9.14355L197.448 9.14356L197.448 -8.21907e-06L159.998 -9.53674e-06Z" fill="#2C3046"/>
<path d="M213.325 46.4498L213.325 55.5934L250.775 55.5934L250.775 46.4498L213.325 46.4498Z" fill="#2C3046"/>
<path d="M213.325 23.2249L213.325 32.3685L250.775 32.3685L250.775 23.2249L213.325 23.2249Z" fill="#2C3046"/>
<path d="M266.652 46.4498L266.652 55.5934L304.102 55.5934L304.102 46.4498L266.652 46.4498Z" fill="#2C3046"/>
<path d="M266.652 23.2249L266.652 32.3685L304.102 32.3685L304.102 23.2249L266.652 23.2249Z" fill="#2C3046"/>
<path d="M266.652 -9.53674e-06L266.652 9.14355L304.102 9.14356L304.102 -8.21907e-06L266.652 -9.53674e-06Z" fill="#2C3046"/>
</svg>
