<svg width="501" height="471" viewBox="0 0 501 471" fill="none" xmlns="http://www.w3.org/2000/svg">
<g id="hero-banner-img">
<path id="Vector" d="M501 0H0V251.449H501V0Z" fill="white"/>
<path id="Vector_2" d="M501 0H0V19.0206H501V0Z" fill="#3F3D56"/>
<path id="Vector_3" d="M13.4196 13.8239C15.7 13.8239 17.5487 11.6711 17.5487 9.01556C17.5487 6.36002 15.7 4.20728 13.4196 4.20728C11.1391 4.20728 9.29047 6.36002 9.29047 9.01556C9.29047 11.6711 11.1391 13.8239 13.4196 13.8239Z" fill="white"/>
<path id="Vector_4" d="M26.8392 13.8239C29.1196 13.8239 30.9683 11.6711 30.9683 9.01556C30.9683 6.36002 29.1196 4.20728 26.8392 4.20728C24.5587 4.20728 22.7101 6.36002 22.7101 9.01556C22.7101 11.6711 24.5587 13.8239 26.8392 13.8239Z" fill="white"/>
<path id="Vector_5" d="M40.2587 13.8239C42.5391 13.8239 44.3878 11.6711 44.3878 9.01556C44.3878 6.36002 42.5391 4.20728 40.2587 4.20728C37.9783 4.20728 36.1296 6.36002 36.1296 9.01556C36.1296 11.6711 37.9783 13.8239 40.2587 13.8239Z" fill="white"/>
<path id="Vector_6" d="M0.355122 251.449H0V470.66H501V251.449L493.224 251.449H0.355122Z" fill="#3F3D56"/>
<path id="Vector_7" d="M189.958 126.369H46.6563V132.945H189.958V126.369Z" fill="#3F3D56"/>
<path id="Vector_8" d="M214.397 74.7898H46.6563V109.606H214.397V74.7898Z" fill="#3F3D56"/>
<path id="Vector_9" d="M189.958 140.835H46.6563V147.411H189.958V140.835Z" fill="#3F3D56"/>
<path id="Vector_10" d="M134.415 155.538H46.6563V161.986H134.415V155.538Z" fill="#3F3D56"/>
<path id="Vector_11" d="M436.57 346.87H293.268V353.317H436.57V346.87Z" fill="white"/>
<path id="Vector_12" d="M436.57 332.686H293.268V339.133H436.57V332.686Z" fill="white"/>
<path id="Vector_13" d="M436.57 361.054H293.268V367.502H436.57V361.054Z" fill="white"/>
<path id="Vector_14" d="M371.029 375.239H293.268V381.686H371.029V375.239Z" fill="white"/>
<path id="Vector_15" d="M102.2 175.369H46.6563V188.264H102.2V175.369Z" stroke="#D0D1EB" stroke-width="2"/>
<path id="Vector_16" d="M381.027 303.028H293.268V317.212H381.027V303.028Z" fill="#FBFFE3"/>
<path id="Vector_17" d="M214.397 283.686H46.6563V398.449H214.397V283.686Z" fill="white"/>
<g id="Hexadecimal">
<path id="Vector_18" d="M131.082 309.076L116.27 338.855L131.082 368.635L160.705 368.635L175.517 338.855L160.705 309.076L131.082 309.076Z" fill="#4C4988"/>
<path id="Vector_19" d="M101.459 309.076L86.6472 338.855L101.459 368.635L131.082 368.635L145.893 338.855L131.082 309.076L101.459 309.076Z" stroke="#D0D1EB" stroke-width="2" stroke-miterlimit="10"/>
</g>
<path id="Vector_20" d="M293.268 128.369L293.268 174.742C293.268 175.847 294.164 176.742 295.268 176.742L334.664 176.742C335.768 176.742 336.664 175.847 336.664 174.742L336.664 128.369C336.664 127.264 335.768 126.369 334.664 126.369L295.268 126.369C294.164 126.369 293.268 127.264 293.268 128.369Z" fill="#4C4988"/>
<path id="Vector_21" d="M339.824 60.0265L339.824 145.001C339.824 146.105 340.719 147.001 341.824 147.001L414.474 147.001C415.578 147.001 416.474 146.105 416.474 145.001L416.474 60.0265C416.474 58.922 415.578 58.0265 414.474 58.0265L341.824 58.0265C340.719 58.0265 339.824 58.922 339.824 60.0265Z" fill="#4C4988"/>
<path id="Vector_22" opacity="0.3" d="M388.46 178.604C400.541 178.604 410.334 167.199 410.334 153.131C410.334 139.063 400.541 127.659 388.46 127.659C376.379 127.659 366.585 139.063 366.585 153.131C366.585 167.199 376.379 178.604 388.46 178.604Z" fill="#6C63FF"/>
<path id="Vector_23" d="M324.928 94.132C330.143 94.132 334.37 89.2248 334.37 83.1714C334.37 77.1181 330.143 72.2108 324.928 72.2108C319.713 72.2108 315.486 77.1181 315.486 83.1714C315.486 89.2248 319.713 94.132 324.928 94.132Z" stroke="#D3D1FF" stroke-width="2"/>
</g>
</svg>
