<svg width="501" height="471" viewBox="0 0 501 471" fill="none" xmlns="http://www.w3.org/2000/svg">
<g id="hero-banner-img">
<path id="Vector" d="M501 0H0V251.449H501V0Z" fill="white"/>
<path id="Vector_2" d="M501 0H0V19.0206H501V0Z" fill="#3F3D56"/>
<path id="Vector_3" d="M13.4196 13.8239C15.7 13.8239 17.5487 11.6711 17.5487 9.01556C17.5487 6.36002 15.7 4.20728 13.4196 4.20728C11.1391 4.20728 9.29047 6.36002 9.29047 9.01556C9.29047 11.6711 11.1391 13.8239 13.4196 13.8239Z" fill="white"/>
<path id="Vector_4" d="M26.8392 13.8239C29.1196 13.8239 30.9683 11.6711 30.9683 9.01556C30.9683 6.36002 29.1196 4.20728 26.8392 4.20728C24.5587 4.20728 22.7101 6.36002 22.7101 9.01556C22.7101 11.6711 24.5587 13.8239 26.8392 13.8239Z" fill="white"/>
<path id="Vector_5" d="M40.2587 13.8239C42.5391 13.8239 44.3878 11.6711 44.3878 9.01556C44.3878 6.36002 42.5391 4.20728 40.2587 4.20728C37.9783 4.20728 36.1296 6.36002 36.1296 9.01556C36.1296 11.6711 37.9783 13.8239 40.2587 13.8239Z" fill="white"/>
<path id="Vector_6" d="M0.355122 251.449H0V470.66H501V251.449L493.224 251.449H0.355122Z" fill="#3F3D56"/>
<path id="Vector_7" d="M214.397 283.686H46.6563V398.449H214.397V283.686Z" fill="white"/>
<g id="Hexadecimal">
<path id="Vector_8" d="M131.082 309.076L116.27 338.855L131.082 368.635L160.705 368.635L175.517 338.855L160.705 309.076L131.082 309.076Z" fill="#4C4988"/>
<path id="Vector_9" d="M101.459 309.076L86.6472 338.855L101.459 368.635L131.082 368.635L145.893 338.855L131.082 309.076L101.459 309.076Z" stroke="#D0D1EB" stroke-width="2" stroke-miterlimit="10"/>
</g>
<path id="Vector_10" d="M293.268 128.369L293.268 174.742C293.268 175.847 294.164 176.742 295.268 176.742L334.664 176.742C335.768 176.742 336.664 175.847 336.664 174.742L336.664 128.369C336.664 127.264 335.768 126.369 334.664 126.369L295.268 126.369C294.164 126.369 293.268 127.264 293.268 128.369Z" fill="#4C4988"/>
<path id="Vector_11" d="M340 60L340 145C340 146.105 340.895 147 342 147L440 147C441.105 147 442 146.105 442 145L442 60C442 58.8954 441.105 58 440 58L342 58C340.895 58 340 58.8954 340 60Z" fill="#4C4988"/>
<g id="bl2">
<path id="b2-l4" d="M294.768 376.739H369.529V379.739H294.768V376.739Z" fill="white" stroke="white" stroke-width="3"/>
<path id="b2-l3" d="M294.768 362.554H435.07V365.554H294.768V362.554Z" fill="white" stroke="white" stroke-width="3"/>
<path id="b2-l2" d="M294.768 348.37H435.07V351.37H294.768V348.37Z" fill="white" stroke="white" stroke-width="3"/>
<path id="b2-l1" d="M294.5 334.5H435.5V337.5H294.5V334.5Z" stroke="white" stroke-width="3"/>
<path id="b2-t1" d="M296.768 306.528H377.527V313.528H296.768V306.528Z" fill="white" stroke="white" stroke-width="7"/>
</g>
<g id="bl1">
<path id="b1-b" d="M49.6563 178.369H99.1995V184.369H49.6563V178.369Z" fill="#D0D1EB" stroke="#D0D1EB" stroke-width="6"/>
<path id="b1-l3" d="M48.1563 157.038H132.915V160.038H48.1563V157.038Z" fill="#3F3D56" stroke="#3F3D56" stroke-width="3"/>
<path id="b1-l2" d="M48.1563 142.335H188.458V145.335H48.1563V142.335Z" fill="#3F3D56" stroke="#3F3D56" stroke-width="3"/>
<path id="b1-l1" d="M48.1563 127.869H188.458V130.869H48.1563V127.869Z" fill="#3F3D56" stroke="#3F3D56" stroke-width="3"/>
<path id="b1-t1" d="M55.1563 83.2898H205.897V100.29H55.1563V83.2898Z" fill="#3F3D56" stroke="#3F3D56" stroke-width="17"/>
</g>
</g>
</svg>
