<svg width="45" height="27" viewBox="0 0 45 27" fill="none" xmlns="http://www.w3.org/2000/svg">
<path d="M1.58203 25.6661C0.960938 25.3028 0.726562 24.8633 0.878906 24.3477L1.61719 21.9395C1.82812 21.2481 2.37891 21.1778 3.26953 21.7286C4.03125 22.209 4.88086 22.4493 5.81836 22.4493C7.10742 22.4493 7.94531 22.004 8.33203 21.1133C8.73047 20.2227 8.92969 18.7403 8.92969 16.6661V2.11137C8.92969 1.23247 9.33984 0.793013 10.1602 0.793013H12.832C13.6523 0.793013 14.0625 1.23247 14.0625 2.11137V16.3145C14.0625 20.627 13.3359 23.4219 11.8828 24.6993C10.4414 25.9649 8.4375 26.5977 5.87109 26.5977C4.07812 26.5977 2.64844 26.2872 1.58203 25.6661ZM18.0703 16.7715C18.0703 13.7832 18.8203 11.4395 20.3203 9.74028C21.8203 8.04106 24.123 7.19145 27.2285 7.19145C29.0449 7.19145 30.457 7.43168 31.4648 7.91215C32.4727 8.39262 33.2812 9.09575 33.8906 10.0215C34.2539 10.5723 34.1953 11.0059 33.7148 11.3223L31.8516 12.5528C31.3242 12.9043 30.8613 12.7696 30.4629 12.1485C30.2637 11.8438 29.8828 11.5157 29.3203 11.1641C28.7578 10.8125 28.0605 10.6368 27.2285 10.6368C25.9043 10.6368 24.9141 11.1055 24.2578 12.043C23.6016 12.9688 23.2734 14.545 23.2734 16.7715C23.2734 18.9981 23.6016 20.5801 24.2578 21.5176C24.9141 22.4434 25.9043 22.9063 27.2285 22.9063C28.1777 22.9063 28.9453 22.7071 29.5312 22.3086C30.1172 21.9102 30.668 21.3946 31.1836 20.7618C31.6289 20.2227 32.0977 20.1465 32.5898 20.5332L34.2246 21.8165C34.7168 22.2032 34.7461 22.7188 34.3125 23.3633C33.8555 24.043 33.0762 24.711 31.9746 25.3672C30.8848 26.0235 29.3027 26.3516 27.2285 26.3516C24.123 26.3516 21.8203 25.502 20.3203 23.8028C18.8203 22.1036 18.0703 19.7598 18.0703 16.7715ZM40.2891 26C39.4688 26 39.0586 25.5606 39.0586 24.6817V22.3262C39.0586 21.4473 39.4688 21.0079 40.2891 21.0079H42.9609C43.7812 21.0079 44.1914 21.4473 44.1914 22.3262V24.6817C44.1914 25.5606 43.7812 26 42.9609 26H40.2891Z" fill="#5BC2E2"/>
</svg>
